<?xml version="1.0" encoding="UTF-8" standalone="no"?>
<!-- Creator: CorelDRAW X6 -->

<svg
   xmlns:dc="http://purl.org/dc/elements/1.1/"
   xmlns:cc="http://creativecommons.org/ns#"
   xmlns:rdf="http://www.w3.org/1999/02/22-rdf-syntax-ns#"
   xmlns:svg="http://www.w3.org/2000/svg"
   xmlns="http://www.w3.org/2000/svg"
   xmlns:sodipodi="http://sodipodi.sourceforge.net/DTD/sodipodi-0.dtd"
   xmlns:inkscape="http://www.inkscape.org/namespaces/inkscape"
   xml:space="preserve"
   width="10.416667in"
   height="6.9350972in"
   version="1.1"
   style="clip-rule:evenodd;fill-rule:evenodd;image-rendering:optimizeQuality;shape-rendering:geometricPrecision;text-rendering:geometricPrecision"
   viewBox="0 0 10417.331 6934.4474"
   id="svg56"
   sodipodi:docname="ATM BCA.svg"
   inkscape:version="0.92.4 (5da689c313, 2019-01-14)"><metadata
   id="metadata60"><rdf:RDF><cc:Work
       rdf:about=""><dc:format>image/svg+xml</dc:format><dc:type
         rdf:resource="http://purl.org/dc/dcmitype/StillImage" /><dc:title></dc:title></cc:Work></rdf:RDF></metadata><sodipodi:namedview
   pagecolor="#ffffff"
   bordercolor="#666666"
   borderopacity="1"
   objecttolerance="10"
   gridtolerance="10"
   guidetolerance="10"
   inkscape:pageopacity="0"
   inkscape:pageshadow="2"
   inkscape:window-width="1920"
   inkscape:window-height="1001"
   id="namedview58"
   showgrid="false"
   fit-margin-top="0"
   fit-margin-left="0"
   fit-margin-right="0"
   fit-margin-bottom="0"
   inkscape:zoom="0.50049251"
   inkscape:cx="338.6664"
   inkscape:cy="225.29763"
   inkscape:window-x="-9"
   inkscape:window-y="-9"
   inkscape:window-maximized="1"
   inkscape:current-layer="svg56" />
 <defs
   id="defs4">
  <style
   type="text/css"
   id="style2">
   <![CDATA[
    .str0 {stroke:#FEFEFE;stroke-width:104.705}
    .fil4 {fill:none;fill-rule:nonzero}
    .fil2 {fill:#0267B1}
    .fil5 {fill:#718FC8}
    .fil6 {fill:#9AAED9}
    .fil7 {fill:#C8D1EA}
    .fil1 {fill:#FEFEFE}
    .fil0 {fill:#0267B1;fill-rule:nonzero}
    .fil3 {fill:#FEFEFE;fill-rule:nonzero}
   ]]>
  </style>
 </defs>
 <g
   id="Layer_x0020_1"
   transform="matrix(1.4759607,0,0,1.4759607,0,7.0102404)">
  <metadata
   id="CorelCorpID_0Corel-Layer" />
  <polygon
   class="fil0"
   points="7058,-5 7058,4694 0,4694 0,-5 "
   id="polygon7"
   style="fill:#0267b1;fill-rule:nonzero" />
  <polygon
   class="fil1"
   points="3591,2125 3302,2125 3265,1836 2981,1836 2822,2139 2511,2139 3154,934 3428,934 "
   id="polygon9"
   style="fill:#fefefe" />
  <polygon
   class="fil1"
   points="4249,1171 4064,2128 3753,2128 3935,1171 3624,1171 3654,945 4641,945 4608,1171 "
   id="polygon11"
   style="fill:#fefefe" />
  <polygon
   class="fil1"
   points="4940,2128 5181,2128 5466,1637 5369,2128 5643,2128 5902,945 5565,945 5173,1670 5062,945 4744,945 4493,2128 4789,2128 4900,1629 "
   id="polygon13"
   style="fill:#fefefe" />
  <polygon
   class="fil2"
   points="3088,1603 3262,1603 3217,1322 "
   id="polygon15"
   style="fill:#0267b1" />
  <path
   class="fil3"
   d="m 2629,3532 c 0,-58 1,-213 -1,-232 1,-231 -166,-393 -272,-380 -73,7 -135,36 -168,122 -31,80 -3,187 98,212 109,27 172,49 218,81 56,39 102,112 103,198 h 21 z"
   id="path17"
   inkscape:connector-curvature="0"
   style="fill:#fefefe;fill-rule:nonzero" />
  <path
   class="fil4 str0"
   d="m 2094,3727 c -84,-177 -133,-379 -133,-582 0,-203 47,-396 132,-573 177,-84 372,-128 575,-128 203,0 403,55 581,139 84,177 136,379 136,582 0,203 -50,395 -134,573 -177,84 -374,128 -577,128 -203,0 -400,-55 -578,-139 z"
   id="path19"
   inkscape:connector-curvature="0"
   style="fill:none;fill-rule:nonzero;stroke:#fefefe;stroke-width:104.70500183" />
  <path
   class="fil3"
   d="m 2583,3532 c 0,-74 -41,-140 -95,-175 -48,-31 -113,-52 -217,-78 -32,-8 -66,-27 -76,-50 -28,28 -33,90 -28,127 6,42 55,112 129,115 45,2 103,-10 130,-16 47,-10 123,20 135,77 z"
   id="path21"
   inkscape:connector-curvature="0"
   style="fill:#fefefe;fill-rule:nonzero" />
  <path
   class="fil3"
   d="m 2667,2560 c -126,0 -235,83 -234,227 0,121 98,186 132,232 52,70 81,152 84,278 2,100 2,199 3,235 h 28 c -1,-37 -2,-142 0,-238 2,-126 31,-206 84,-275 35,-46 132,-111 132,-232 0,-144 -108,-227 -234,-227 h 6 z"
   id="path23"
   inkscape:connector-curvature="0"
   style="fill:#fefefe;fill-rule:nonzero" />
  <path
   class="fil3"
   d="m 2699,3532 c 0,-58 -1,-213 1,-232 -1,-231 166,-393 272,-380 73,7 135,36 168,122 31,80 3,187 -98,212 -109,27 -172,49 -218,81 -56,39 -99,112 -100,198 h -24 z"
   id="path25"
   inkscape:connector-curvature="0"
   style="fill:#fefefe;fill-rule:nonzero" />
  <path
   class="fil3"
   d="m 2744,3532 c 0,-74 41,-140 95,-175 48,-31 113,-52 217,-78 32,-8 66,-27 76,-50 28,28 33,90 28,127 -6,42 -55,112 -129,115 -45,2 -103,-10 -130,-16 -47,-10 -123,20 -134,77 h -22 z"
   id="path27"
   inkscape:connector-curvature="0"
   style="fill:#fefefe;fill-rule:nonzero" />
  <path
   class="fil3"
   d="m 2800,3696 c 5,-1 12,-1 15,-6 2,-3 3,-6 2,-13 -2,-9 -4,-14 -15,-12 l -10,1 4,30 4,-1 z m 8,54 c 5,-1 9,-1 13,-3 6,-4 5,-11 4,-17 -2,-13 -5,-18 -19,-16 l -8,1 5,36 z m -25,21 -16,-118 39,-6 c 9,-1 21,1 26,6 5,6 7,11 8,19 1,10 -2,22 -13,28 v 0 c 13,0 20,9 22,24 0,3 1,11 0,18 -3,16 -12,20 -28,23 l -39,5 z"
   id="path29"
   inkscape:connector-curvature="0"
   style="fill:#fefefe;fill-rule:nonzero" />
  <path
   class="fil3"
   d="m 2952,3701 c 0,2 1,5 1,7 3,21 -1,39 -25,44 -36,7 -43,-15 -49,-46 l -3,-17 c -5,-30 -7,-52 28,-59 19,-4 32,4 38,24 1,3 2,6 2,9 l -21,4 c -2,-7 -6,-20 -15,-19 -17,2 -12,23 -10,32 l 6,32 c 2,10 6,25 21,22 12,-2 7,-21 6,-29 l 22,-4 z"
   id="path31"
   inkscape:connector-curvature="0"
   style="fill:#fefefe;fill-rule:nonzero" />
  <path
   class="fil3"
   d="m 3003,3679 18,-5 v 0 l -24,-49 z m -17,57 -7,-122 29,-9 60,106 -23,7 -14,-27 -25,8 3,30 z"
   id="path33"
   inkscape:connector-curvature="0"
   style="fill:#fefefe;fill-rule:nonzero" />
  <path
   class="fil3"
   d="m 2278,3644 c 9,-29 17,-50 51,-41 18,5 30,13 29,34 0,5 -2,10 -3,14 l -21,-6 c 3,-12 5,-21 -10,-26 -17,-5 -21,16 -23,25 l -9,32 c -3,9 -6,25 9,29 12,3 20,-9 24,-26 l -15,-4 5,-18 35,11 -17,62 -16,-4 4,-13 v 0 c -8,11 -17,12 -24,10 -35,-10 -31,-32 -23,-63 z"
   id="path35"
   inkscape:connector-curvature="0"
   style="fill:#fefefe;fill-rule:nonzero" />
  <path
   class="fil3"
   d="m 2413,3678 16,4 c 10,1 15,-4 17,-15 2,-11 -1,-15 -9,-17 l -17,-4 z m -4,18 -10,50 -24,-5 25,-117 41,9 c 24,5 31,16 28,37 -2,13 -8,26 -23,25 v 0 c 13,4 14,11 11,22 -1,5 -8,33 -3,38 v 4 l -24,-7 c -1,-8 2,-22 4,-30 1,-7 4,-17 -3,-21 -6,-3 -8,-3 -14,-4 l -6,-1 z"
   id="path37"
   inkscape:connector-curvature="0"
   style="fill:#fefefe;fill-rule:nonzero" />
  <path
   class="fil3"
   d="m 2561,3650 24,3 -10,82 c -5,26 -15,37 -44,34 -29,-4 -36,-17 -34,-43 l 10,-82 24,3 -10,80 c -1,9 -3,22 12,23 14,1 17,-8 18,-19 l 10,-80 z"
   id="path39"
   inkscape:connector-curvature="0"
   style="fill:#fefefe;fill-rule:nonzero" />
  <path
   class="fil3"
   d="m 2637,3708 12,1 c 10,0 16,-3 17,-18 1,-14 -5,-16 -17,-16 h -10 l -2,34 z m -27,65 7,-117 45,2 c 21,1 27,18 26,35 0,10 -4,21 -12,28 -7,5 -17,6 -25,6 l -15,-1 -3,49 z"
   id="path41"
   inkscape:connector-curvature="0"
   style="fill:#fefefe;fill-rule:nonzero" />
  <path
   class="fil3"
   d="m 5793,2674 -180,325 c -68,-55 -150,-95 -256,-95 -249,0 -351,186 -351,317 0,97 63,241 286,241 93,0 226,-65 264,-94 l -177,378 c -84,17 -112,27 -184,30 -397,12 -558,-232 -558,-482 0,-330 294,-731 779,-731 30,0 66,10 97,22 l 31,-40 247,131 z"
   id="path43"
   inkscape:connector-curvature="0"
   style="fill:#fefefe;fill-rule:nonzero" />
  <path
   class="fil3"
   d="m 6203,2915 -146,344 h 150 z m 330,-362 51,1183 h -378 v -203 h -258 l -85,203 h -410 l 428,-845 -97,-1 184,-338 h 564 z"
   id="path45"
   inkscape:connector-curvature="0"
   style="fill:#fefefe;fill-rule:nonzero" />
  <path
   class="fil3"
   d="m 4059,3242 -51,194 c 0,0 79,0 130,0 51,0 120,-25 137,-89 17,-63 -32,-106 -82,-106 -51,0 -134,0 -134,0 z m 155,-209 c 39,0 107,-10 124,-85 19,-81 -45,-83 -76,-83 l -110,-1 -38,169 h 101 z m 183,-480 c 187,1 293,103 293,249 0,135 -112,255 -234,317 126,47 137,160 137,241 0,194 -195,376 -448,376 -80,0 -452,0 -553,0 l 216,-833 -89,-1 181,-350 c 0,0 345,-1 498,0 z"
   id="path47"
   inkscape:connector-curvature="0"
   style="fill:#fefefe;fill-rule:nonzero" />
  <polygon
   class="fil5"
   points="1313,0 8,4694 344,4694 1653,0 "
   id="polygon49"
   style="fill:#718fc8" />
  <polygon
   class="fil6"
   points="1649,0 344,4694 680,4694 1989,0 "
   id="polygon51"
   style="fill:#9aaed9" />
  <polygon
   class="fil7"
   points="1981,0 676,4694 1012,4694 2321,0 "
   id="polygon53"
   style="fill:#c8d1ea" />
 </g>
</svg>